<svg xmlns="http://www.w3.org/2000/svg" width="14" height="17" viewBox="0 0 14 17" fill="none">
  <path d="M7 0V5.1C7 5.55087 7.18437 5.98327 7.51256 6.30208C7.84075 6.62089 8.28587 6.8 8.75 6.8H14V15.3C14 15.7509 13.8156 16.1833 13.4874 16.5021C13.1592 16.8209 12.7141 17 12.25 17H1.75C1.28587 17 0.840752 16.8209 0.512563 16.5021C0.184374 16.1833 0 15.7509 0 15.3V1.7C0 1.24913 0.184374 0.81673 0.512563 0.497918C0.840752 0.179107 1.28587 0 1.75 0H7ZM8.3125 0.425V5.1C8.3125 5.21272 8.35859 5.32082 8.44064 5.40052C8.52269 5.48022 8.63397 5.525 8.75 5.525H13.5625L8.3125 0.425Z" fill="white"/>
</svg>