<svg xmlns="http://www.w3.org/2000/svg" width="18" height="18" viewBox="0 0 18 18" fill="none">
  <g clip-path="url(#clip0_183_1459)">
    <path d="M8.64138 4.00696C8.59508 3.96254 8.53341 3.93774 8.46925 3.93774C8.4051 3.93774 8.34342 3.96254 8.29713 4.00696L2.56671 9.48167C2.54237 9.5049 2.52298 9.53281 2.50971 9.56373C2.49644 9.59465 2.48957 9.62794 2.4895 9.66159V14.7998C2.4895 15.0638 2.59433 15.3171 2.78095 15.5038C2.96757 15.6906 3.2207 15.7956 3.48471 15.7958H6.476C6.54145 15.7958 6.60628 15.783 6.66678 15.7581C6.72728 15.7331 6.78226 15.6964 6.82857 15.6502C6.87488 15.6039 6.91163 15.549 6.9367 15.4885C6.96177 15.4281 6.97467 15.3632 6.97467 15.2978V11.0648C6.97458 11.0321 6.98094 10.9997 6.99339 10.9694C7.00584 10.9392 7.02414 10.9117 7.04724 10.8885C7.07033 10.8654 7.09777 10.847 7.12799 10.8345C7.1582 10.8219 7.19058 10.8155 7.22329 10.8155H9.71379C9.7465 10.8155 9.77889 10.8219 9.8091 10.8345C9.83931 10.847 9.86675 10.8654 9.88985 10.8885C9.91295 10.9117 9.93124 10.9392 9.9437 10.9694C9.95615 10.9997 9.96251 11.0321 9.96242 11.0648V15.2978C9.96242 15.3632 9.97532 15.4281 10.0004 15.4885C10.0255 15.549 10.0622 15.6039 10.1085 15.6502C10.1548 15.6964 10.2098 15.7331 10.2703 15.7581C10.3308 15.783 10.3956 15.7958 10.4611 15.7958H13.4503C13.7145 15.7958 13.9678 15.6908 14.1547 15.5041C14.3416 15.3173 14.4467 15.064 14.4469 14.7998V9.66159C14.447 9.62798 14.4403 9.5947 14.4271 9.56377C14.414 9.53284 14.3947 9.50491 14.3704 9.48167L8.64138 4.00625V4.00696Z" fill="#98989B"/>
    <path d="M15.7815 8.45465L13.4532 6.22765V2.84748C13.4532 2.71541 13.4007 2.58875 13.3073 2.49537C13.2139 2.40198 13.0873 2.34952 12.9552 2.34952H11.4606C11.3286 2.34952 11.2019 2.40198 11.1085 2.49537C11.0151 2.58875 10.9627 2.71541 10.9627 2.84748V3.8434L9.15997 2.11931C8.99068 1.94931 8.73993 1.85156 8.46864 1.85156C8.19947 1.85156 7.94872 1.94931 7.78014 2.12002L1.15864 8.45465C1.06418 8.54352 1.0073 8.66516 0.999662 8.79462C0.992023 8.92409 1.0342 9.05158 1.11755 9.15094C1.16181 9.20192 1.21598 9.24337 1.27676 9.27277C1.33754 9.30217 1.40366 9.3189 1.4711 9.32195C1.53855 9.32499 1.60591 9.31429 1.66909 9.2905C1.73228 9.2667 1.78996 9.2303 1.83864 9.18352L8.29793 3.01181C8.34431 2.96756 8.40595 2.94287 8.47005 2.94287C8.53416 2.94287 8.5958 2.96756 8.64218 3.01181L15.1022 9.18352C15.1973 9.27467 15.3246 9.32443 15.4563 9.3219C15.588 9.31938 15.7133 9.26478 15.8048 9.17006C15.9961 8.97173 15.9805 8.6459 15.7815 8.45465Z" fill="#98989B"/>
  </g>
  <defs>
    <clipPath id="clip0_183_1459">
      <rect width="17" height="17" fill="white" transform="translate(0.5 0.5)"/>
    </clipPath>
  </defs>
</svg>