<svg xmlns="http://www.w3.org/2000/svg" width="17" height="17" viewBox="0 0 17 17" fill="none">
  <path d="M11.9773 10.897L13.8627 12.0955L13.2832 13.2005L10.8182 11.6365V8.5H11.9773V10.897ZM17 11.05C17 14.3395 14.5814 17 11.5909 17C8.60045 17 6.18182 14.3395 6.18182 11.05C6.18182 10.761 6.205 10.4805 6.24364 10.2H0V0H13.9091V5.678C15.7327 6.6385 17 8.6785 17 11.05ZM6.70727 8.5C6.84636 8.194 6.99318 7.905 7.17091 7.6245C7.10136 7.65 7.03182 7.65 6.95455 7.65C5.67182 7.65 4.63636 6.511 4.63636 5.1C4.63636 3.689 5.67182 2.55 6.95455 2.55C8.23727 2.55 9.27273 3.689 9.27273 5.1C9.27273 5.3125 9.24182 5.525 9.19545 5.7205C9.92182 5.3295 10.7332 5.1 11.5909 5.1C11.8536 5.1 12.1086 5.1255 12.3636 5.168V3.4C11.9538 3.4 11.5607 3.22089 11.2708 2.90208C10.981 2.58327 10.8182 2.15087 10.8182 1.7H3.09091C3.09091 2.6435 2.40318 3.4 1.54545 3.4V6.8C1.95533 6.8 2.34843 6.97911 2.63826 7.29792C2.92808 7.61673 3.09091 8.04913 3.09091 8.5H6.70727ZM15.4545 11.05C15.4545 8.704 13.7236 6.8 11.5909 6.8C9.45818 6.8 7.72727 8.704 7.72727 11.05C7.72727 13.396 9.45818 15.3 11.5909 15.3C13.7236 15.3 15.4545 13.396 15.4545 11.05Z" fill="white"/>
</svg>