<svg xmlns="http://www.w3.org/2000/svg" width="19" height="19" viewBox="0 0 19 19" fill="none">
  <path d="M18 9.5H12.3333H13.2778C14.0292 9.5 14.7499 9.79851 15.2812 10.3299C15.8126 10.8612 16.1111 11.5819 16.1111 12.3333C16.1111 13.0848 15.8126 13.8054 15.2812 14.3368C14.7499 14.8682 14.0292 15.1667 13.2778 15.1667H12.3333L15.1667 18M12.3333 12.3333H18M4.77778 2.88889C4.77778 3.38985 4.57877 3.8703 4.22454 4.22454C3.8703 4.57877 3.38985 4.77778 2.88889 4.77778C2.38792 4.77778 1.90748 4.57877 1.55324 4.22454C1.19901 3.8703 1 3.38985 1 2.88889C1 2.38792 1.19901 1.90748 1.55324 1.55324C1.90748 1.19901 2.38792 1 2.88889 1C3.38985 1 3.8703 1.19901 4.22454 1.55324C4.57877 1.90748 4.77778 2.38792 4.77778 2.88889ZM4.77778 2.88889H12.3333M4.77778 2.88889V10.4444C4.77778 11.1959 5.07629 11.9166 5.60764 12.4479C6.13899 12.9793 6.85966 13.2778 7.61111 13.2778H8.55556M12.3333 2.88889C12.3333 3.38985 12.5323 3.8703 12.8866 4.22454C13.2408 4.57877 13.7213 4.77778 14.2222 4.77778C14.7232 4.77778 15.2036 4.57877 15.5579 4.22454C15.9121 3.8703 16.1111 3.38985 16.1111 2.88889C16.1111 2.38792 15.9121 1.90748 15.5579 1.55324C15.2036 1.19901 14.7232 1 14.2222 1C13.7213 1 13.2408 1.19901 12.8866 1.55324C12.5323 1.90748 12.3333 2.38792 12.3333 2.88889Z" stroke="white" strokeWidth="2" stroke-linecap="round" stroke-linejoin="round"/>
</svg>